<svg xmlns="http://www.w3.org/2000/svg" width="40" height="40" viewBox="0 0 40 40"><g transform="translate(-312 -224)"><g transform="translate(312 224)"><path d="M0,0H40V40H0Z" fill="none"/><path d="M15.333,31.333v-10H22v10h8.333V18h5L18.667,3,2,18H7V31.333Z" transform="translate(1.333 2)" fill="#152ed6"/></g><g transform="translate(337 247)" fill="#fff" stroke="#fff" stroke-width="1"><ellipse cx="7" cy="6.5" rx="7" ry="6.5" stroke="none"/><ellipse cx="7" cy="6.5" rx="6.5" ry="6" fill="none"/></g><g transform="translate(335.333 245.667)"><path d="M0,0H16.667V16.667H0ZM0,0H16.667V16.667H0Z" fill="none"/><path d="M12.132,5.875,7.556,10.451,5.062,7.965l-.979.979,3.472,3.472,5.556-5.556ZM8.944,2a6.944,6.944,0,1,0,6.944,6.944A6.947,6.947,0,0,0,8.944,2Zm0,12.5A5.556,5.556,0,1,1,14.5,8.944,5.554,5.554,0,0,1,8.944,14.5Z" transform="translate(-0.611 -0.611)" fill="#152ed6"/></g></g></svg>