<svg xmlns="http://www.w3.org/2000/svg" width="24" height="24" viewBox="0 0 24 24"><g transform="translate(-312 -224)"><g transform="translate(312 224)"><path d="M0,0H24V24H0Z" fill="none"/><path d="M10,20V14h4v6h5V12h3L12,3,2,12H5v8Z" fill="#152ed6"/></g><g transform="translate(327 238)" fill="#fff" stroke="#fff" stroke-width="1"><circle cx="4" cy="4" r="4" stroke="none"/><circle cx="4" cy="4" r="3.5" fill="none"/></g><g transform="translate(326 237)"><path d="M0,0H10V10H0ZM0,0H10V10H0Z" fill="none"/><path d="M8.079,4.325,5.333,7.071l-1.5-1.492-.587.588L5.333,8.25,8.667,4.917ZM6.167,2a4.167,4.167,0,1,0,4.167,4.167A4.168,4.168,0,0,0,6.167,2Zm0,7.5A3.333,3.333,0,1,1,9.5,6.167,3.332,3.332,0,0,1,6.167,9.5Z" transform="translate(-1.167 -1.167)" fill="#152ed6"/></g></g></svg>